<svg xmlns="http://www.w3.org/2000/svg" xmlns:xlink="http://www.w3.org/1999/xlink" width="220"  viewBox="110 100 160 130" height="80" preserveAspectRatio="xMidYMid meet" version="1.0"><defs><g/><clipPath id="80d420068a"><path d="M 167 116 L 264.976562 116 L 264.976562 158.910156 L 167 158.910156 Z M 167 116 " clip-rule="nonzero"/></clipPath><clipPath id="848eb823f4"><path d="M 115 115.410156 L 170 115.410156 L 170 158.910156 L 115 158.910156 Z M 115 115.410156 " clip-rule="nonzero"/></clipPath></defs><g clip-path="url(#80d420068a)"><path fill="#c6ab7c" d="M 264.976562 158.234375 L 211.992188 116.175781 L 167.710938 116.175781 L 220.695312 158.234375 Z M 264.976562 158.234375 " fill-opacity="1" fill-rule="nonzero"/></g><g clip-path="url(#848eb823f4)"><path fill="#c6ab7c" d="M 115.722656 158.890625 C 115.53125 158.890625 115.339844 158.808594 115.207031 158.644531 C 114.984375 158.359375 115.03125 157.949219 115.3125 157.722656 L 168.296875 115.664062 C 168.582031 115.4375 168.996094 115.488281 169.21875 115.769531 C 169.441406 116.054688 169.394531 116.464844 169.113281 116.6875 L 116.132812 158.746094 C 116.011719 158.847656 115.867188 158.890625 115.722656 158.890625 Z M 115.722656 158.890625 " fill-opacity="1" fill-rule="nonzero"/></g><path fill="#c6ab7c" d="M 156.972656 147.886719 L 165.730469 147.886719 L 165.730469 156.644531 L 156.972656 156.644531 Z M 156.972656 147.886719 " fill-opacity="1" fill-rule="nonzero"/><path fill="#c6ab7c" d="M 169.6875 147.886719 L 178.445312 147.886719 L 178.445312 156.644531 L 169.6875 156.644531 Z M 169.6875 147.886719 " fill-opacity="1" fill-rule="nonzero"/><path fill="#c6ab7c" d="M 156.972656 135.75 L 165.730469 135.75 L 165.730469 144.507812 L 156.972656 144.507812 Z M 156.972656 135.75 " fill-opacity="1" fill-rule="nonzero"/><path fill="#c6ab7c" d="M 169.6875 135.75 L 178.445312 135.75 L 178.445312 144.507812 L 169.6875 144.507812 Z M 169.6875 135.75 " fill-opacity="1" fill-rule="nonzero"/><path fill="#c6ab7c" d="M 144.199219 135.75 L 135.441406 142.394531 L 135.441406 122.34375 L 144.199219 122.34375 Z M 144.199219 135.75 " fill-opacity="1" fill-rule="nonzero"/><g fill="#c6ab7c" fill-opacity="1"><g transform="translate(103.152177, 201.181775)"><g><path d="M 2.84375 0 L 2.84375 -24.875 L 12.65625 -24.875 C 14.382812 -24.875 15.984375 -24.566406 17.453125 -23.953125 C 18.921875 -23.335938 20.207031 -22.476562 21.3125 -21.375 C 22.414062 -20.28125 23.273438 -18.972656 23.890625 -17.453125 C 24.503906 -15.929688 24.8125 -14.257812 24.8125 -12.4375 C 24.8125 -10.632812 24.503906 -8.96875 23.890625 -7.4375 C 23.273438 -5.914062 22.414062 -4.601562 21.3125 -3.5 C 20.207031 -2.394531 18.921875 -1.535156 17.453125 -0.921875 C 15.984375 -0.304688 14.382812 0 12.65625 0 Z M 4.515625 -1.5625 L 12.65625 -1.5625 C 14.625 -1.5625 16.398438 -2.03125 17.984375 -2.96875 C 19.578125 -3.90625 20.832031 -5.191406 21.75 -6.828125 C 22.675781 -8.460938 23.140625 -10.332031 23.140625 -12.4375 C 23.140625 -14.570312 22.675781 -16.457031 21.75 -18.09375 C 20.832031 -19.726562 19.578125 -21.015625 17.984375 -21.953125 C 16.398438 -22.890625 14.625 -23.359375 12.65625 -23.359375 L 4.515625 -23.359375 Z M 4.515625 -1.5625 "/></g></g></g><g fill="#c6ab7c" fill-opacity="1"><g transform="translate(132.831655, 201.181775)"><g><path d="M 9.171875 0.421875 L 0.5625 -24.875 L 2.3125 -24.875 L 9.3125 -4.15625 L 9.53125 -4.15625 L 17.453125 -25.28125 L 17.953125 -25.28125 L 25.875 -4.15625 L 26.125 -4.15625 L 33.125 -24.875 L 34.875 -24.875 L 26.265625 0.421875 L 25.8125 0.421875 L 17.84375 -20.578125 L 17.59375 -20.578125 L 9.59375 0.421875 Z M 9.171875 0.421875 "/></g></g></g><g fill="#c6ab7c" fill-opacity="1"><g transform="translate(171.14808, 201.181775)"><g><path d="M 2.84375 0 L 2.84375 -24.875 L 20.9375 -24.875 L 20.9375 -23.3125 L 4.484375 -23.3125 L 4.484375 -13.40625 L 18.484375 -13.40625 L 18.484375 -11.984375 L 4.484375 -11.984375 L 4.484375 -1.5625 L 21.359375 -1.5625 L 21.359375 0 Z M 2.84375 0 "/></g></g></g><g fill="#c6ab7c" fill-opacity="1"><g transform="translate(197.344342, 201.181775)"><g><path d="M 2.84375 0 L 2.84375 -24.875 L 4.515625 -24.875 L 4.515625 -1.5625 L 20.515625 -1.5625 L 20.515625 0 Z M 2.84375 0 "/></g></g></g><g fill="#c6ab7c" fill-opacity="1"><g transform="translate(222.083337, 201.181775)"><g><path d="M 2.84375 0 L 2.84375 -24.875 L 4.515625 -24.875 L 4.515625 -1.5625 L 20.515625 -1.5625 L 20.515625 0 Z M 2.84375 0 "/></g></g></g><g fill="#c6ab7c" fill-opacity="1"><g transform="translate(246.822326, 201.181775)"><g><path d="M 0.421875 0 L 12.265625 -25.28125 L 12.765625 -25.28125 L 24.59375 0 L 22.75 0 L 20.40625 -5.125 L 4.625 -5.125 L 2.3125 0 Z M 5.296875 -6.5 L 19.765625 -6.5 L 12.625 -22.03125 L 12.40625 -22.03125 Z M 5.296875 -6.5 "/></g></g></g><path stroke-linecap="round" transform="matrix(0.75, 0, 0, 0.75, 111.749997, 225.452592)" fill="none" stroke-linejoin="miter" d="M 1.000004 1.000711 L 203.3021 1.000711 " stroke="#c6ab7c" stroke-width="2" stroke-opacity="1" stroke-miterlimit="4"/></svg>